<?xml version="1.0" encoding="utf-8"?>
<!-- Generator: Adobe Illustrator 16.0.0, SVG Export Plug-In . SVG Version: 6.00 Build 0)  -->
<!DOCTYPE svg PUBLIC "-//W3C//DTD SVG 1.1//EN" "http://www.w3.org/Graphics/SVG/1.1/DTD/svg11.dtd">
<svg version="1.1" id="Layer_1" xmlns="http://www.w3.org/2000/svg" xmlns:xlink="http://www.w3.org/1999/xlink" x="0px" y="0px"
	 width="2237.552px" height="904.381px" viewBox="0 0 2237.552 904.381" enable-background="new 0 0 2237.552 904.381"
	 xml:space="preserve">
<text transform="matrix(1 0 0 1 818.5586 876.0117)" fill="#414042" font-family="'ShFuturaRound-Normal'" font-size="392.9174">BULUCU</text>
<text transform="matrix(1 0 0 1 803.5586 545.7686)" fill="#DF1F26" font-family="'ShFuturaRound-Normal'" font-size="737.2721">KAN</text>
<g>
	<g>
		<g>
			<g>
				<path fill="#414042" d="M629.521,606.466c0,0-87.193-23.971-206.135,39.518c0,0-25.254,17.366-67.926,21.521
					c-42.674,4.157-81.576-0.072-111.833,0.316c-9.787,0.126-14.467,17.53-1.721,37.867c12.413,21.775,64.759,52.891,116.081,51.842
					c0,0,89.473-0.863,124.674-24.012c0,0-124.141,67.479-242.929,32.701c-84.465-24.727-121.918-91.742-131.279-99.083
					c-22.594-25.402-50.143-41.866-73.076-29.336c-5.244,4.283-6.121,9.622-3.605,16.859
					c14.725,42.313,64.393,143.705,207.645,190.332c211.63,68.883,361.603,7.758,403.001-36.076
					C694.129,765.006,794.83,640.05,629.521,606.466z"/>
				<path fill="#414042" d="M109.075,654.868c12.211,13.247,29.797,34.747,41.635,48.122c26.088,29.471,56.504,44.971,79.639,54.219
					c0,0-29.09-16.438-45.059-51.64c-6.572-14.495-25.551-49.823-50.49-66.061c-25.014-17.854-55.232-6.739-55.232-6.739
					S96.858,641.622,109.075,654.868z"/>
				<path fill="#414042" d="M151.001,641.433c7.65,8.016,20.188,20.856,30.287,39.187c10.096,18.334,14.289,27.489,19.922,37.456
					c5.629,9.968,16.379,22.247,20.115,24.647c0.002,0-12.494-13.4-22.723-48.902c-6.775-18.714-4.158-32.571-19.365-50.02
					c-19.434-20.871-48.33-14.448-48.33-14.448S143.351,633.42,151.001,641.433z"/>
			</g>
		</g>
		<path opacity="0.4" fill="#FFFFFF" d="M390.375,559.552c0,0,0.609-0.355,1.75-1.021c0.469-0.277,1.049-0.616,1.732-1.015
			c0.234-0.134,0.486-0.276,0.758-0.429c0.141-0.075,0.283-0.15,0.432-0.23c0.156-0.091,0.342-0.231,0.518-0.35
			c0.721-0.5,1.562-1.018,2.393-1.691c0.416-0.332,0.889-0.645,1.326-1.027c0.447-0.379,0.908-0.771,1.387-1.178
			c1.873-1.682,3.91-3.756,5.938-6.334c2.031-2.574,4.049-5.652,5.918-9.222c1.869-3.567,3.586-7.622,5.057-12.055
			c1.473-4.432,2.678-9.245,3.633-14.275c0.965-5.03,1.654-10.285,2.096-15.619c0.441-5.334,0.664-10.745,0.678-16.109
			c0.01-5.363-0.162-10.68-0.475-15.838c-0.311-5.158-0.768-10.157-1.297-14.901c-0.529-4.743-1.143-9.229-1.783-13.366
			c-1.281-8.276-2.662-15.152-3.721-19.948c-1.057-4.799-1.789-7.519-1.789-7.519s1.285,2.505,3.336,7.001
			c2.049,4.496,4.867,10.98,7.904,18.942c1.52,3.979,3.092,8.328,4.646,12.98c1.553,4.652,3.1,9.604,4.545,14.798
			c2.885,10.383,5.424,21.72,6.926,33.447c0.76,5.858,1.25,11.815,1.393,17.778s-0.041,11.93-0.664,17.787
			c-0.627,5.854-1.674,11.595-3.16,17.048c-1.477,5.454-3.396,10.613-5.625,15.28c-2.219,4.668-4.744,8.827-7.252,12.375
			c-0.65,0.874-1.277,1.72-1.885,2.539c-0.609,0.82-1.262,1.559-1.861,2.296c-1.189,1.486-2.402,2.745-3.477,3.912
			c-0.273,0.292-0.52,0.567-0.805,0.851c-0.299,0.29-0.59,0.571-0.873,0.842c-0.572,0.542-1.107,1.048-1.605,1.521
			c-0.824,0.759-1.529,1.405-2.098,1.93c-0.973,0.89-1.492,1.365-1.492,1.365l-0.004,0.003c-7.783,7.105-19.855,6.556-26.959-1.227
			c-7.105-7.782-6.557-19.852,1.225-26.958C388.125,561.034,389.271,560.207,390.375,559.552z"/>
		<g>
			<path fill-rule="evenodd" clip-rule="evenodd" fill="#DF1F26" d="M268.178,43.102c-0.975-1.354-2.537-2.18-4.195-2.18
				c-1.678,0-3.246,0.807-4.217,2.18c-10.387,14.51-36.45,52.655-36.45,70.658c0,22.457,18.205,40.648,40.647,40.648
				c22.475,0,40.668-18.191,40.668-40.648C304.648,95.757,278.566,57.612,268.178,43.102L268.178,43.102z M246.362,130.136
				c-0.701,0.866-1.713,1.284-2.727,1.284c-0.797,0-1.617-0.29-2.283-0.847c-10.086-8.503-6.619-21.033-6.443-21.561
				c0.531-1.891,2.496-2.976,4.383-2.428c1.885,0.537,2.977,2.498,2.422,4.368c-0.098,0.399-2.27,8.718,4.23,14.187
				C247.412,126.424,247.621,128.653,246.362,130.136L246.362,130.136z"/>
			<path fill-rule="evenodd" clip-rule="evenodd" fill="#DF1F26" d="M360.012,247.027c-2.82-4-7.434-6.389-12.336-6.389
				c-4.936,0-9.514,2.349-12.389,6.389c-30.561,42.634-107.151,154.811-107.151,207.704c0,66.02,53.536,119.481,119.487,119.481
				c66.059,0,119.539-53.461,119.539-119.481C467.201,401.837,390.572,289.661,360.012,247.027L360.012,247.027z M295.879,502.888
				c-2.041,2.478-5.018,3.712-7.988,3.712c-2.367,0-4.746-0.816-6.73-2.458c-29.607-24.95-19.412-61.791-18.936-63.374
				c1.584-5.543,7.34-8.728,12.889-7.146c5.547,1.602,8.732,7.354,7.15,12.867c-0.305,1.205-6.713,25.646,12.375,41.699
				C299.002,491.921,299.576,498.499,295.879,502.888L295.879,502.888z"/>
			<path fill-rule="evenodd" clip-rule="evenodd" fill="#DF1F26" d="M529.223,56.995c-1.891-2.688-4.996-4.31-8.271-4.31
				c-3.344,0-6.428,1.583-8.338,4.31c-20.57,28.681-72.123,104.18-72.123,139.778c0,44.405,36.018,80.4,80.402,80.4
				c44.459,0,80.436-35.996,80.436-80.4C601.367,161.175,549.812,85.676,529.223,56.995L529.223,56.995z M486.08,229.166
				c-1.373,1.682-3.381,2.498-5.383,2.498c-1.604,0-3.203-0.537-4.539-1.642c-19.924-16.799-13.057-41.579-12.729-42.644
				c1.066-3.742,4.938-5.882,8.67-4.827c3.74,1.085,5.871,4.956,4.826,8.658c-0.211,0.816-4.539,17.267,8.309,28.064
				C488.191,221.792,488.578,226.23,486.08,229.166L486.08,229.166z"/>
		</g>
	</g>
</g>
</svg>
