<?xml version="1.0" encoding="utf-8"?>
<!-- Generator: Adobe Illustrator 16.0.0, SVG Export Plug-In . SVG Version: 6.00 Build 0)  -->
<!DOCTYPE svg PUBLIC "-//W3C//DTD SVG 1.1//EN" "http://www.w3.org/Graphics/SVG/1.1/DTD/svg11.dtd">
<svg version="1.1" id="Layer_1" xmlns="http://www.w3.org/2000/svg" xmlns:xlink="http://www.w3.org/1999/xlink" x="0px" y="0px"
	 width="2237.552px" height="904.381px" viewBox="0 0 2237.552 904.381" enable-background="new 0 0 2237.552 904.381"
	 xml:space="preserve">
<g>
	<path fill="#414042" d="M1008.927,755.976c8.773,11.395,13.162,25.607,13.162,42.631c0,26.197-9.564,47.021-28.682,62.474
		c-12.052,9.958-33.399,14.931-64.046,14.931h-67.975c-22.531,0-33.791-11.26-33.791-33.791V648.12
		c0-22.525,11.26-33.791,33.791-33.791h52.651c14.403,0,25.54,0.657,33.398,1.965c7.858,1.313,14.796,3.536,20.825,6.679
		c9.688,5.243,17.417,13.23,23.183,23.968c5.758,10.744,8.645,22.396,8.645,34.97c0,11.788-2.297,21.61-6.877,29.469
		c-4.586,7.858-11.984,14.802-22.2,20.825C987.513,736.661,1000.148,744.581,1008.927,755.976z M911.287,715.309
		c19.904,0,29.862-7.858,29.862-23.575s-10.351-23.575-31.041-23.575h-20.825v47.15H911.287z M927.396,821.396
		c21.218,0,31.827-8.644,31.827-25.932c0-9.43-2.75-16.239-8.251-20.432c-5.501-4.187-14.28-6.287-26.325-6.287h-35.363v52.651
		H927.396z"/>
	<path fill="#414042" d="M1034.661,643.012c0-10.474,2.75-18.528,8.251-24.165c5.501-5.63,13.225-8.448,23.183-8.448
		c9.43,0,16.828,2.886,22.199,8.645c5.366,5.765,8.056,13.752,8.056,23.968l0.393,122.983c0,18.86,4.519,33.398,13.556,43.614
		c9.037,10.216,21.807,15.324,38.31,15.324c16.502,0,29.204-5.041,38.112-15.127c8.902-10.081,13.359-24.558,13.359-43.417V643.012
		c0-10.474,2.684-18.528,8.055-24.165c5.366-5.63,13.028-8.448,22.986-8.448c9.688,0,17.221,2.886,22.593,8.645
		c5.365,5.765,8.055,13.752,8.055,23.968v122.983c0,13.359-1.117,25.147-3.34,35.363c-2.229,10.216-5.568,19.517-10.02,27.897
		c-9.172,17.031-22.593,30.322-40.274,39.881c-17.681,9.559-37.658,14.341-59.92,14.341c-17.288,0-32.876-2.689-46.757-8.055
		c-13.887-5.366-25.804-13.095-35.756-23.182c-9.958-10.081-17.619-22.132-22.985-36.148c-5.372-14.01-8.055-29.665-8.055-46.954
		V643.012z"/>
	<path fill="#414042" d="M1401.643,818.646c21.739,0,32.612,9.958,32.612,29.861c0,18.338-10.873,27.504-32.612,27.504h-88.014
		c-22.531,0-33.791-11.26-33.791-33.791V642.619c0-10.474,2.683-18.528,8.055-24.165c5.366-5.629,13.027-8.447,22.985-8.447
		c9.688,0,17.222,2.885,22.593,8.644c5.366,5.765,8.056,13.752,8.056,23.968v176.027H1401.643z"/>
	<path fill="#414042" d="M1443.286,643.012c0-10.474,2.75-18.528,8.251-24.165c5.501-5.63,13.225-8.448,23.183-8.448
		c9.43,0,16.828,2.886,22.199,8.645c5.366,5.765,8.056,13.752,8.056,23.968l0.393,122.983c0,18.86,4.519,33.398,13.556,43.614
		c9.037,10.216,21.807,15.324,38.31,15.324c16.502,0,29.204-5.041,38.112-15.127c8.902-10.081,13.359-24.558,13.359-43.417V643.012
		c0-10.474,2.684-18.528,8.055-24.165c5.366-5.63,13.028-8.448,22.986-8.448c9.688,0,17.221,2.886,22.593,8.645
		c5.365,5.765,8.055,13.752,8.055,23.968v122.983c0,13.359-1.117,25.147-3.34,35.363c-2.229,10.216-5.568,19.517-10.02,27.897
		c-9.172,17.031-22.593,30.322-40.274,39.881c-17.681,9.559-37.658,14.341-59.92,14.341c-17.288,0-32.876-2.689-46.757-8.055
		c-13.887-5.366-25.804-13.095-35.756-23.182c-9.958-10.081-17.619-22.132-22.985-36.148c-5.372-14.01-8.055-29.665-8.055-46.954
		V643.012z"/>
	<path fill="#414042" d="M1846.809,609.417c9.166,1.965,17.024,4.715,23.575,8.251c6.544,3.536,11.652,7.797,15.323,12.77
		c3.666,4.979,5.501,10.351,5.501,16.109c0,4.193-0.656,8.19-1.964,11.984c-1.314,3.8-3.144,7.14-5.501,10.02
		c-2.357,2.886-4.979,5.175-7.858,6.876c-2.886,1.707-5.894,2.554-9.037,2.554c-4.715,0-10.609-1.179-17.682-3.536
		c-14.931-5.237-28.161-7.858-39.685-7.858c-8.908,0-17.159,2.1-24.754,6.287c-7.601,4.193-14.084,10.019-19.449,17.485
		c-5.372,7.465-9.498,16.177-12.377,26.129c-2.886,9.958-4.064,20.567-3.536,31.826c1.044,23.053,7.134,41.256,18.271,54.616
		c11.131,13.359,25.736,20.039,43.811,20.039c11.26,0,22.918-2.222,34.97-6.68c3.929-1.571,7.072-2.812,9.43-3.732
		c2.357-0.915,4.255-1.572,5.697-1.965c1.437-0.393,2.683-0.65,3.732-0.786c1.044-0.129,2.357-0.196,3.93-0.196
		c6.544,0,12.241,3.014,17.092,9.037c4.844,6.029,7.269,13.101,7.269,21.217c0,4.979-0.921,9.301-2.75,12.966
		c-1.836,3.671-4.979,7.336-9.43,11.001c-3.672,2.886-8.056,5.568-13.163,8.055c-5.108,2.492-10.608,4.58-16.503,6.287
		c-5.894,1.701-11.983,3.076-18.271,4.125c-6.286,1.044-12.444,1.572-18.467,1.572c-19.91,0-37.984-3.34-54.223-10.02
		c-16.245-6.68-30.059-16.109-41.453-28.29c-11.395-12.18-20.174-26.915-26.325-44.203c-6.158-17.289-9.233-36.542-9.233-57.759
		c0-20.689,3.144-39.488,9.43-56.384c6.287-16.896,15.257-31.298,26.915-43.221c11.652-11.917,25.669-21.15,42.042-27.701
		c16.367-6.545,34.639-9.823,54.812-9.823C1827.685,606.47,1837.637,607.453,1846.809,609.417z"/>
	<path fill="#414042" d="M1902.993,643.012c0-10.474,2.75-18.528,8.251-24.165c5.501-5.63,13.225-8.448,23.183-8.448
		c9.43,0,16.828,2.886,22.199,8.645c5.366,5.765,8.056,13.752,8.056,23.968l0.393,122.983c0,18.86,4.519,33.398,13.556,43.614
		c9.037,10.216,21.807,15.324,38.31,15.324c16.501,0,29.205-5.041,38.113-15.127c8.902-10.081,13.359-24.558,13.359-43.417V643.012
		c0-10.474,2.684-18.528,8.055-24.165c5.365-5.63,13.027-8.448,22.986-8.448c9.688,0,17.221,2.886,22.592,8.645
		c5.365,5.765,8.055,13.752,8.055,23.968v122.983c0,13.359-1.117,25.147-3.34,35.363c-2.229,10.216-5.568,19.517-10.02,27.897
		c-9.172,17.031-22.592,30.322-40.273,39.881s-37.658,14.341-59.92,14.341c-17.288,0-32.876-2.689-46.757-8.055
		c-13.887-5.366-25.804-13.095-35.756-23.182c-9.958-10.081-17.619-22.132-22.985-36.148c-5.372-14.01-8.055-29.665-8.055-46.954
		V643.012z"/>
</g>
<g>
	<path fill="#DF1F26" d="M936.268,491.947c0,19.665-5.046,34.779-15.114,45.343c-10.08,10.563-24.456,15.852-43.13,15.852
		c-18.19,0-32.325-5.415-42.394-16.221c-10.08-10.806-15.114-25.804-15.114-44.974V107.829c0-19.653,5.034-34.767,15.114-45.342
		c10.068-10.564,24.445-15.852,43.131-15.852c18.178,0,32.312,5.415,42.393,16.22c10.068,10.817,15.114,25.804,15.114,44.974
		v135.658l127.548-145.979c17.199-19.169,31.081-32.555,41.656-40.182c10.563-7.615,21.012-11.428,31.334-11.428
		c6.877,0,13.513,1.475,19.906,4.424c6.382,2.949,12.038,7.004,16.957,12.165c4.907,5.161,8.848,10.944,11.797,17.326
		c2.949,6.394,4.423,13.271,4.423,20.644c0,8.364-3.812,18.432-11.427,30.229c-7.627,11.796-21.267,28.512-40.919,50.134
		l-92.896,103.218L1170.72,426.33c2.454,2.949,4.908,5.783,7.373,8.479c2.454,2.707,4.907,5.287,7.373,7.741
		c11.301,12.291,19.284,22.613,23.961,30.965c4.666,8.363,7.004,16.716,7.004,25.067c0,14.745-5.656,27.532-16.957,38.338
		c-11.312,10.806-24.825,16.221-40.55,16.221c-10.817,0-20.401-2.339-28.754-7.005c-8.363-4.665-17.452-12.648-27.279-23.961
		l-23.592-28.017L936.268,329.011V491.947z"/>
	<path fill="#DF1F26" d="M1336.6,466.512c-1.971,5.161-3.445,9.711-4.424,13.64c-4.919,14.745-9.47,26.91-13.64,36.495
		c-4.182,9.584-8.605,17.084-13.271,22.486c-4.677,5.415-9.953,9.09-15.851,11.06c-5.898,1.958-12.787,2.949-20.644,2.949
		c-14.262,0-26.427-4.678-36.495-14.009c-10.08-9.331-15.114-20.885-15.114-34.651c0-13.271,4.665-31.944,14.008-56.033
		c1.475-2.948,2.822-5.897,4.056-8.847c1.221-2.949,2.326-5.645,3.317-8.11l105.43-288.273l14.009-39.812
		c9.331-22.602,20.147-38.453,32.439-47.554c12.28-9.089,29.237-13.639,50.872-13.639c20.148,0,36.495,4.919,49.028,14.745
		c12.534,9.838,22.729,25.321,30.597,46.448l14.746,39.812l105.43,288.273c0.979,1.97,1.958,4.309,2.949,7.004
		c0.979,2.707,2.211,6.025,3.686,9.953c4.424,10.817,7.857,21.14,10.322,30.966c2.454,9.838,3.687,18.189,3.687,25.067
		c0,13.767-5.161,25.32-15.483,34.651c-10.321,9.331-23.351,14.009-39.075,14.009c-8.363,0-15.482-0.991-21.381-2.949
		c-5.897-1.97-11.312-5.645-16.22-11.06c-4.919-5.402-9.47-12.902-13.64-22.486c-4.182-9.585-8.732-21.75-13.64-36.495
		c-1.475-3.929-3.075-8.479-4.792-13.64c-1.729-5.161-3.813-11.174-6.267-18.063h-188.005
		C1340.77,455.338,1338.558,461.351,1336.6,466.512z M1497.324,344.493l-58.244-176.208l-60.456,176.208H1497.324z"/>
	<path fill="#DF1F26" d="M1796.647,492.685c0,19.665-5.046,34.779-15.114,45.343c-10.08,10.563-24.456,15.852-43.13,15.852
		c-18.19,0-32.325-5.415-42.394-16.221c-10.08-10.806-15.114-25.804-15.114-44.974V133.633c0-32.44,4.793-56.148,14.377-71.146
		C1704.857,47.5,1720.213,40,1741.352,40c7.857,0,14.861,0.991,21.013,2.949c6.141,1.97,12.533,5.783,19.169,11.428
		c6.636,5.656,14.25,13.766,22.855,24.33c8.594,10.575,19.284,24.457,32.071,41.656l161.463,221.182V108.566
		c0-19.653,5.161-34.767,15.482-45.342c10.322-10.564,24.814-15.852,43.499-15.852c37.843,0,56.771,20.402,56.771,61.194V461.72
		c0,33.431-4.182,57.392-12.534,71.884c-8.363,14.492-21.876,21.75-40.55,21.75c-13.271,0-25.194-3.445-35.758-10.322
		c-10.575-6.877-21.508-18.179-32.809-33.914l-26.542-36.127l-168.835-230.766V492.685z"/>
</g>
<g>
	<g>
		<g>
			<g>
				<path fill="#414042" d="M629.521,606.466c0,0-87.193-23.971-206.135,39.518c0,0-25.254,17.366-67.926,21.521
					c-42.674,4.157-81.576-0.072-111.833,0.316c-9.787,0.126-14.467,17.53-1.721,37.867c12.413,21.775,64.759,52.891,116.081,51.842
					c0,0,89.473-0.863,124.674-24.012c0,0-124.141,67.479-242.929,32.701c-84.465-24.727-121.918-91.742-131.279-99.083
					c-22.594-25.402-50.143-41.866-73.076-29.336c-5.244,4.283-6.121,9.622-3.605,16.859
					c14.725,42.313,64.393,143.705,207.645,190.332c211.63,68.883,361.603,7.758,403.001-36.076
					C694.129,765.006,794.83,640.05,629.521,606.466z"/>
				<path fill="#414042" d="M109.075,654.868c12.211,13.247,29.797,34.747,41.635,48.122c26.088,29.471,56.504,44.971,79.639,54.219
					c0,0-29.09-16.438-45.059-51.64c-6.572-14.495-25.551-49.823-50.49-66.061c-25.014-17.854-55.232-6.739-55.232-6.739
					S96.858,641.622,109.075,654.868z"/>
				<path fill="#414042" d="M151.001,641.433c7.65,8.016,20.188,20.856,30.287,39.187c10.096,18.334,14.289,27.489,19.922,37.456
					c5.629,9.968,16.379,22.247,20.115,24.647c0.002,0-12.494-13.4-22.723-48.902c-6.775-18.714-4.158-32.571-19.365-50.02
					c-19.434-20.871-48.33-14.448-48.33-14.448S143.351,633.42,151.001,641.433z"/>
			</g>
		</g>
		<path opacity="0.4" fill="#FFFFFF" d="M390.375,559.552c0,0,0.609-0.355,1.75-1.021c0.469-0.277,1.049-0.616,1.732-1.015
			c0.234-0.134,0.486-0.276,0.758-0.429c0.141-0.075,0.283-0.15,0.432-0.23c0.156-0.091,0.342-0.231,0.518-0.35
			c0.721-0.5,1.562-1.018,2.393-1.691c0.416-0.332,0.889-0.645,1.326-1.027c0.447-0.379,0.908-0.771,1.387-1.178
			c1.873-1.682,3.91-3.756,5.938-6.334c2.031-2.574,4.049-5.652,5.918-9.222c1.869-3.567,3.586-7.622,5.057-12.055
			c1.473-4.432,2.678-9.245,3.633-14.275c0.965-5.03,1.654-10.285,2.096-15.619c0.441-5.334,0.664-10.745,0.678-16.109
			c0.01-5.363-0.162-10.68-0.475-15.838c-0.311-5.158-0.768-10.157-1.297-14.901c-0.529-4.743-1.143-9.229-1.783-13.366
			c-1.281-8.276-2.662-15.152-3.721-19.948c-1.057-4.799-1.789-7.519-1.789-7.519s1.285,2.505,3.336,7.001
			c2.049,4.496,4.867,10.98,7.904,18.942c1.52,3.979,3.092,8.328,4.646,12.98c1.553,4.652,3.1,9.604,4.545,14.798
			c2.885,10.383,5.424,21.72,6.926,33.447c0.76,5.858,1.25,11.815,1.393,17.778s-0.041,11.93-0.664,17.787
			c-0.627,5.854-1.674,11.595-3.16,17.048c-1.477,5.454-3.396,10.613-5.625,15.28c-2.219,4.668-4.744,8.827-7.252,12.375
			c-0.65,0.874-1.277,1.72-1.885,2.539c-0.609,0.82-1.262,1.559-1.861,2.296c-1.189,1.486-2.402,2.745-3.477,3.912
			c-0.273,0.292-0.52,0.567-0.805,0.851c-0.299,0.29-0.59,0.571-0.873,0.842c-0.572,0.542-1.107,1.048-1.605,1.521
			c-0.824,0.759-1.529,1.405-2.098,1.93c-0.973,0.89-1.492,1.365-1.492,1.365l-0.004,0.003c-7.783,7.105-19.855,6.556-26.959-1.227
			c-7.105-7.782-6.557-19.852,1.225-26.958C388.125,561.034,389.271,560.207,390.375,559.552z"/>
		<g>
			<path fill-rule="evenodd" clip-rule="evenodd" fill="#DF1F26" d="M268.178,43.102c-0.975-1.354-2.537-2.18-4.195-2.18
				c-1.678,0-3.246,0.807-4.217,2.18c-10.387,14.51-36.45,52.655-36.45,70.658c0,22.457,18.205,40.648,40.647,40.648
				c22.475,0,40.668-18.191,40.668-40.648C304.648,95.757,278.566,57.612,268.178,43.102L268.178,43.102z M246.362,130.136
				c-0.701,0.866-1.713,1.284-2.727,1.284c-0.797,0-1.617-0.29-2.283-0.847c-10.086-8.503-6.619-21.033-6.443-21.561
				c0.531-1.891,2.496-2.976,4.383-2.428c1.885,0.537,2.977,2.498,2.422,4.368c-0.098,0.399-2.27,8.718,4.23,14.187
				C247.412,126.424,247.621,128.653,246.362,130.136L246.362,130.136z"/>
			<path fill-rule="evenodd" clip-rule="evenodd" fill="#DF1F26" d="M360.012,247.027c-2.82-4-7.434-6.389-12.336-6.389
				c-4.936,0-9.514,2.349-12.389,6.389c-30.561,42.634-107.151,154.811-107.151,207.704c0,66.02,53.536,119.481,119.487,119.481
				c66.059,0,119.539-53.461,119.539-119.481C467.201,401.837,390.572,289.661,360.012,247.027L360.012,247.027z M295.879,502.888
				c-2.041,2.478-5.018,3.712-7.988,3.712c-2.367,0-4.746-0.816-6.73-2.458c-29.607-24.95-19.412-61.791-18.936-63.374
				c1.584-5.543,7.34-8.728,12.889-7.146c5.547,1.602,8.732,7.354,7.15,12.867c-0.305,1.205-6.713,25.646,12.375,41.699
				C299.002,491.921,299.576,498.499,295.879,502.888L295.879,502.888z"/>
			<path fill-rule="evenodd" clip-rule="evenodd" fill="#DF1F26" d="M529.223,56.995c-1.891-2.688-4.996-4.31-8.271-4.31
				c-3.344,0-6.428,1.583-8.338,4.31c-20.57,28.681-72.123,104.18-72.123,139.778c0,44.405,36.018,80.4,80.402,80.4
				c44.459,0,80.436-35.996,80.436-80.4C601.367,161.175,549.812,85.676,529.223,56.995L529.223,56.995z M486.08,229.166
				c-1.373,1.682-3.381,2.498-5.383,2.498c-1.604,0-3.203-0.537-4.539-1.642c-19.924-16.799-13.057-41.579-12.729-42.644
				c1.066-3.742,4.938-5.882,8.67-4.827c3.74,1.085,5.871,4.956,4.826,8.658c-0.211,0.816-4.539,17.267,8.309,28.064
				C488.191,221.792,488.578,226.23,486.08,229.166L486.08,229.166z"/>
		</g>
	</g>
</g>
</svg>
